<svg width="70" height="70" viewBox="0 0 70 70" fill="none" xmlns="http://www.w3.org/2000/svg">
<path d="M29.8172 56.5857L29.3975 56.2301H28.8476H13.5089C11.8473 56.2301 10.5 54.883 10.5 53.2208V11.5093C10.5 9.84718 11.8473 8.5 13.5089 8.5H56.343C58.0046 8.5 59.3519 9.84718 59.3519 11.5093V53.2208C59.3519 54.883 58.0046 56.2301 56.343 56.2301H42.0983H41.5483L41.1287 56.5857L35.4729 61.3771L29.8172 56.5857Z" stroke="#333333" stroke-width="3"/>
<path fill-rule="evenodd" clip-rule="evenodd" d="M29.5921 26.4337C28.6864 29.9161 29.8644 31.2652 32.1771 33.8019C34.4898 36.3386 36.0346 37.1491 36.9027 37.3524C37.5275 37.4986 39.504 35.9272 40.563 35.0348C40.9871 34.6773 41.5719 34.5743 42.0747 34.8086C43.7207 35.5755 47.4038 37.4859 49.1794 39.9537C50.2401 41.4277 38.9339 49.8296 28.6322 39.0515C18.3305 28.2734 21.3976 20.5354 24.4845 19.8264C25.7613 19.5331 30.0235 24.7748 29.5921 26.4337Z" stroke="#1674B7" stroke-width="3"/>
</svg>
