<svg width="32" height="32" viewBox="0 0 32 32" fill="none" xmlns="http://www.w3.org/2000/svg">
<circle cx="25.6" cy="10.6" r="5.6" fill="#00A8FF"/>
<path fill-rule="evenodd" clip-rule="evenodd" d="M24.6827 11.4002H16.8008V10.2002H24.6827C26.3396 10.2002 27.6827 11.5433 27.6827 13.2002V27.5576H4.80078V26.3576H26.4827V13.2002C26.4827 12.2061 25.6769 11.4002 24.6827 11.4002Z" fill="#666666"/>
<path fill-rule="evenodd" clip-rule="evenodd" d="M7.20078 5.2C6.53804 5.2 6.00078 5.73726 6.00078 6.4V26.3016L16.8205 26.3016V6.4C16.8205 5.73726 16.2832 5.2 15.6205 5.2H7.20078ZM18.0205 27.5016H4.80078V6.4C4.80078 5.07451 5.8753 4 7.20078 4H15.6205C16.9459 4 18.0205 5.07452 18.0205 6.4V27.5016Z" fill="#666666"/>
<path fill-rule="evenodd" clip-rule="evenodd" d="M9.10938 9.19473C9.10938 8.86336 9.378 8.59473 9.70938 8.59473H13.6004C13.9318 8.59473 14.2004 8.86336 14.2004 9.19473C14.2004 9.5261 13.9318 9.79473 13.6004 9.79473H9.70938C9.378 9.79473 9.10938 9.5261 9.10938 9.19473Z" fill="#666666"/>
<path fill-rule="evenodd" clip-rule="evenodd" d="M9.10938 12.3949C9.10938 12.0636 9.378 11.7949 9.70938 11.7949H13.6004C13.9318 11.7949 14.2004 12.0636 14.2004 12.3949C14.2004 12.7263 13.9318 12.9949 13.6004 12.9949H9.70938C9.378 12.9949 9.10938 12.7263 9.10938 12.3949Z" fill="#666666"/>
<path fill-rule="evenodd" clip-rule="evenodd" d="M20 14.6C20 14.2686 20.2686 14 20.6 14H24.491C24.8224 14 25.091 14.2686 25.091 14.6C25.091 14.9314 24.8224 15.2 24.491 15.2H20.6C20.2686 15.2 20 14.9314 20 14.6Z" fill="#666666"/>
<path fill-rule="evenodd" clip-rule="evenodd" d="M9.10938 15.5941C9.10938 15.2628 9.378 14.9941 9.70938 14.9941H13.6004C13.9318 14.9941 14.2004 15.2628 14.2004 15.5941C14.2004 15.9255 13.9318 16.1941 13.6004 16.1941H9.70938C9.378 16.1941 9.10938 15.9255 9.10938 15.5941Z" fill="#666666"/>
<path fill-rule="evenodd" clip-rule="evenodd" d="M20 17.8002C20 17.4688 20.2686 17.2002 20.6 17.2002H24.491C24.8224 17.2002 25.091 17.4688 25.091 17.8002C25.091 18.1316 24.8224 18.4002 24.491 18.4002H20.6C20.2686 18.4002 20 18.1316 20 17.8002Z" fill="#666666"/>
</svg>
