<svg width="24" height="24" viewBox="0 0 27 24" fill="none" xmlns="http://www.w3.org/2000/svg">
<circle cx="21.2836" cy="6.6" r="5.6" fill="#00A8FF"/>
<path fill-rule="evenodd" clip-rule="evenodd" d="M20.6827 7.4002H12.8008V6.2002H20.6827C22.3396 6.2002 23.6827 7.54334 23.6827 9.2002V23.5576H0.800781V22.3576H22.4827V9.2002C22.4827 8.20608 21.6769 7.4002 20.6827 7.4002Z" fill="#666666"/>
<path fill-rule="evenodd" clip-rule="evenodd" d="M3.20078 1.2C2.53804 1.2 2.00078 1.73726 2.00078 2.4V22.3016L12.8205 22.3016V2.4C12.8205 1.73726 12.2832 1.2 11.6205 1.2H3.20078ZM14.0205 23.5016H0.800781V2.4C0.800781 1.07451 1.8753 0 3.20078 0H11.6205C12.9459 0 14.0205 1.07452 14.0205 2.4V23.5016Z" fill="#666666"/>
<path fill-rule="evenodd" clip-rule="evenodd" d="M5.10938 5.19473C5.10938 4.86336 5.378 4.59473 5.70938 4.59473H9.60039C9.93176 4.59473 10.2004 4.86336 10.2004 5.19473C10.2004 5.5261 9.93176 5.79473 9.60039 5.79473H5.70938C5.378 5.79473 5.10938 5.5261 5.10938 5.19473Z" fill="#666666"/>
<path fill-rule="evenodd" clip-rule="evenodd" d="M5.10938 8.39492C5.10938 8.06355 5.378 7.79492 5.70938 7.79492H9.60039C9.93176 7.79492 10.2004 8.06355 10.2004 8.39492C10.2004 8.72629 9.93176 8.99492 9.60039 8.99492H5.70938C5.378 8.99492 5.10938 8.72629 5.10938 8.39492Z" fill="#666666"/>
<path fill-rule="evenodd" clip-rule="evenodd" d="M16 10.6C16 10.2686 16.2686 10 16.6 10H20.491C20.8224 10 21.091 10.2686 21.091 10.6C21.091 10.9314 20.8224 11.2 20.491 11.2H16.6C16.2686 11.2 16 10.9314 16 10.6Z" fill="#666666"/>
<path fill-rule="evenodd" clip-rule="evenodd" d="M5.10938 11.5941C5.10938 11.2628 5.378 10.9941 5.70938 10.9941H9.60039C9.93176 10.9941 10.2004 11.2628 10.2004 11.5941C10.2004 11.9255 9.93176 12.1941 9.60039 12.1941H5.70938C5.378 12.1941 5.10938 11.9255 5.10938 11.5941Z" fill="#666666"/>
<path fill-rule="evenodd" clip-rule="evenodd" d="M16 13.8002C16 13.4688 16.2686 13.2002 16.6 13.2002H20.491C20.8224 13.2002 21.091 13.4688 21.091 13.8002C21.091 14.1316 20.8224 14.4002 20.491 14.4002H16.6C16.2686 14.4002 16 14.1316 16 13.8002Z" fill="#666666"/>
</svg>
