<svg width="18" height="18" viewBox="0 0 18 18" fill="none" xmlns="http://www.w3.org/2000/svg">
<path fill-rule="evenodd" clip-rule="evenodd" d="M15 1.4H3C2.11634 1.4 1.4 2.11634 1.4 3V13.8596L10.6332 6.34934C11.1527 5.92673 11.8548 5.91078 12.3895 6.30944L16.6 9.44885V3C16.6 2.11634 15.8837 1.4 15 1.4ZM16.6 11.1349L11.6874 7.47195C11.593 7.4016 11.4691 7.40441 11.3775 7.47899L1.48757 15.5234C1.70439 16.15 2.29964 16.6 3 16.6H15C15.8837 16.6 16.6 15.8837 16.6 15V11.1349ZM3 0C1.34315 0 0 1.34315 0 3V15C0 16.6569 1.34315 18 3 18H15C16.6569 18 18 16.6569 18 15V3C18 1.34315 16.6569 0 15 0H3ZM4.56985 5.34347C3.96233 5.34347 3.46985 5.83364 3.46985 6.43829C3.46985 7.04294 3.96233 7.5331 4.56985 7.5331C5.17736 7.5331 5.66985 7.04294 5.66985 6.43829C5.66985 5.83364 5.17736 5.34347 4.56985 5.34347ZM2.06985 6.43829C2.06985 5.06409 3.18913 3.95007 4.56985 3.95007C5.95056 3.95007 7.06985 5.06409 7.06985 6.43829C7.06985 7.81249 5.95056 8.9265 4.56985 8.9265C3.18913 8.9265 2.06985 7.81249 2.06985 6.43829Z" fill="#333333"/>
</svg>
