<svg width="24" height="24" viewBox="0 0 24 24" fill="none" xmlns="http://www.w3.org/2000/svg">
<rect width="24" height="24" fill="white"/>
<path fill-rule="evenodd" clip-rule="evenodd" d="M12 20.6667C16.7865 20.6667 20.6667 16.7865 20.6667 12C20.6667 7.21353 16.7865 3.33333 12 3.33333C7.21353 3.33333 3.33333 7.21353 3.33333 12C3.33333 16.7865 7.21353 20.6667 12 20.6667ZM12 22C17.5228 22 22 17.5228 22 12C22 6.47715 17.5228 2 12 2C6.47715 2 2 6.47715 2 12C2 17.5228 6.47715 22 12 22Z" fill="#333333"/>
<rect x="7.83594" y="8.66699" width="1.66667" height="2.5" fill="#333333"/>
<rect x="14.5" y="8.66699" width="1.66667" height="2.5" fill="#333333"/>
<path fill-rule="evenodd" clip-rule="evenodd" d="M7 17.833C7.50203 15.9268 9.54996 14.4997 12 14.4997C14.45 14.4997 16.498 15.9268 17 17.833H15.4882C15.0224 16.6036 13.6368 15.7118 12 15.7118C10.3632 15.7118 8.97761 16.6036 8.5118 17.833H7Z" fill="#333333"/>
</svg>
