<svg width="24" height="24" viewBox="0 0 24 24" fill="none" xmlns="http://www.w3.org/2000/svg">
<path d="M3.61422 5.92932L2.57421 11.1293C2.27719 12.6144 3.41309 14 4.9276 14H9.60008C9.82099 14 10.0001 14.1791 10.0001 14.4V18.9808C10.0001 20.096 10.9041 21 12.0193 21C12.8659 21 13.6227 20.4718 13.9146 19.6771L15.7957 14.0618C15.8094 14.0209 15.8164 13.978 15.8164 13.9348V4.4C15.8164 4.17908 15.6373 4 15.4164 4H5.96761C4.82357 4 3.83858 4.8075 3.61422 5.92932Z" fill="#2A3F6D"/>
<path d="M17 4.4L17 13.6C17 13.8209 17.1791 14 17.4 14H18.6C19.9255 14 21 12.9255 21 11.6V6.4C21 5.07452 19.9255 4 18.6 4H17.4C17.1791 4 17 4.17908 17 4.4Z" fill="#2A3F6D"/>
</svg>
