<svg width="17" height="16" viewBox="0 0 17 16" fill="none" xmlns="http://www.w3.org/2000/svg">
<path fill-rule="evenodd" clip-rule="evenodd" d="M8.72915 4.36685C8.4574 3.72833 8.00506 3.1831 7.42769 2.79813C6.85032 2.41315 6.17307 2.20521 5.47915 2.19985C5.05 2.19128 4.62354 2.26949 4.22536 2.42978C3.82718 2.59008 3.46548 2.82915 3.16197 3.13267C2.85845 3.43618 2.61938 3.79788 2.45908 4.19606C2.29879 4.59425 2.22058 5.0207 2.22915 5.44985C2.22915 7.99885 4.96815 9.96985 8.72915 13.7559C12.4902 9.96985 15.2292 7.99985 15.2292 5.44985C15.2377 5.0207 15.1595 4.59425 14.9992 4.19606C14.8389 3.79788 14.5998 3.43618 14.2963 3.13267C13.9928 2.82915 13.6311 2.59008 13.2329 2.42978C12.8348 2.26949 12.4083 2.19128 11.9792 2.19985C11.2852 2.20496 10.6078 2.4128 10.0304 2.7978C9.45298 3.1828 9.00069 3.72818 8.72915 4.36685Z" fill="#2A3F6D"/>
</svg>
