<svg width="16" height="16" viewBox="0 0 16 16" fill="none" xmlns="http://www.w3.org/2000/svg">
<path fill-rule="evenodd" clip-rule="evenodd" d="M8.00064 4.36685C7.72888 3.72833 7.27654 3.1831 6.69917 2.79813C6.1218 2.41315 5.44456 2.20521 4.75064 2.19985C4.32149 2.19128 3.89503 2.26949 3.49685 2.42978C3.09866 2.59008 2.73697 2.82915 2.43345 3.13267C2.12994 3.43618 1.89086 3.79788 1.73057 4.19606C1.57027 4.59425 1.49206 5.0207 1.50064 5.44985C1.50064 7.99885 4.23964 9.96985 8.00064 13.7559C11.7616 9.96985 14.5006 7.99985 14.5006 5.44985C14.5092 5.0207 14.431 4.59425 14.2707 4.19606C14.1104 3.79788 13.8713 3.43618 13.5678 3.13267C13.2643 2.82915 12.9026 2.59008 12.5044 2.42978C12.1062 2.26949 11.6798 2.19128 11.2506 2.19985C10.5567 2.20496 9.8793 2.4128 9.30188 2.7978C8.72447 3.1828 8.27217 3.72818 8.00064 4.36685V4.36685Z" stroke="#555555" stroke-width="1.2" stroke-linecap="round" stroke-linejoin="round"/>
</svg>
