<svg width="24" height="24" viewBox="0 0 24 24" fill="none" xmlns="http://www.w3.org/2000/svg">
<path d="M7 12L7 21" stroke="#555555" stroke-width="1.2" stroke-linecap="round"/>
<path d="M13 11C12.0626 11 15.4212 11 18.0725 11C19.587 11 20.7229 12.3856 20.4259 13.8707L19.3859 19.0707C19.1615 20.1925 18.1765 21 17.0325 21H5.4C4.07452 21 3 19.9255 3 18.6V13.4C3 12.0745 4.07452 11 5.4 11H7" stroke="#555555" stroke-width="1.2"/>
<path d="M13 11V5.98303C13 4.88783 12.1122 4 11.017 4V4C10.1556 4 9.39268 4.55612 9.12908 5.3762L7 12" stroke="#555555" stroke-width="1.2" stroke-linecap="round"/>
</svg>
