<svg width="24" height="24" viewBox="0 0 24 24" fill="none" xmlns="http://www.w3.org/2000/svg">
<path d="M20.3858 18.0707L21.4258 12.8707C21.7228 11.3856 20.5869 10 19.0724 10H14.3999C14.179 10 13.9999 9.82091 13.9999 9.6V5.01919C13.9999 3.90402 13.0959 3 11.9807 3C11.1341 3 10.3773 3.5282 10.0854 4.32294L8.20431 9.93816C8.19059 9.97912 8.18359 10.022 8.18359 10.0652V19.6C8.18359 19.8209 8.36268 20 8.58359 20H18.0324C19.1764 20 20.1614 19.1925 20.3858 18.0707Z" fill="#2A3F6D"/>
<path d="M7 19.6L7 10.4C7 10.1791 6.82091 10 6.6 10H5.4C4.07452 10 3 11.0745 3 12.4V17.6C3 18.9255 4.07452 20 5.4 20H6.6C6.82091 20 7 19.8209 7 19.6Z" fill="#2A3F6D"/>
</svg>
