<svg width="70" height="70" viewBox="0 0 70 70" fill="none" xmlns="http://www.w3.org/2000/svg">
<path d="M23.9157 29.2633C24.1509 29.0161 24.3597 28.7828 24.5373 28.5623C24.9602 28.0372 24.9808 27.2945 24.5876 26.7468C21.8366 22.914 19.8807 20.3941 18.7593 19.2861C18.0899 18.6247 17.1868 18.4832 16.562 18.5016C15.953 18.5196 15.1162 18.7039 14.5246 19.2869C13.3718 20.423 12.9885 20.8061 11.7946 22.0188C9.03642 24.7837 8.99145 29.4491 10.4698 34.1212C11.987 38.9159 15.249 44.2644 19.9906 49.0115C24.7309 53.7572 30.0758 57.0225 34.8731 58.5371C39.5477 60.0129 44.2137 59.9568 46.9915 57.1886C48.0832 56.1352 48.9835 55.2347 49.6846 54.4935C50.2333 53.9134 50.4766 53.1374 50.4983 52.4432C50.5204 51.7382 50.3192 50.8928 49.6897 50.2386L48.8284 51.0675L49.6897 50.2386C48.6315 49.1389 46.1958 47.2535 42.2401 44.4123C41.6924 44.019 40.9496 44.0394 40.4244 44.4622C40.0632 44.753 39.6542 45.1456 39.1041 45.6962C39.104 45.6963 39.104 45.6964 39.1039 45.6965L37.2838 47.5179C36.3121 48.4903 34.9331 48.7201 32.917 47.942C30.8671 47.1508 28.4726 45.4024 26.0366 42.9636C23.5985 40.5228 21.8512 38.1261 21.0608 36.075C20.2834 34.0578 20.5134 32.678 21.486 31.7053C21.9776 31.2137 22.5843 30.6066 23.306 29.884C23.5986 29.5911 23.7426 29.4453 23.9157 29.2633ZM23.9157 29.2633L22.829 28.2294L23.9157 29.2633C23.9157 29.2633 23.9157 29.2633 23.9157 29.2633Z" stroke="#333333" stroke-width="3" stroke-linejoin="round"/>
<path d="M36.0391 21.7021C40.0032 22.1426 47.9316 25.1378 47.9316 33.5947" stroke="#1674B7" stroke-width="3" stroke-linecap="round"/>
<path d="M36.0391 11C43.9674 11.8809 59.8241 17.8712 59.8241 34.785" stroke="#1674B7" stroke-width="3" stroke-linecap="round"/>
</svg>
