<svg width="24" height="24" viewBox="0 0 24 24" fill="none" xmlns="http://www.w3.org/2000/svg">
<path d="M21 15.15C20.6867 15.9621 20.2557 16.7185 19.7272 17.4C18.0319 19.586 15.3327 21 12.2925 21C7.16041 21 3 16.9706 3 12C3 7.02944 7.16041 3 12.2925 3C15.5366 3 18.3924 4.61 20.0546 7.05C20.1905 7.24208 20.346 7.5214 20.4997 7.88234" stroke="#333333" stroke-width="1.2" stroke-linecap="round"/>
<path d="M18 8L21 8" stroke="#333333" stroke-width="1.2" stroke-linecap="round"/>
<path d="M21 5V8" stroke="#333333" stroke-width="1.2" stroke-linecap="round"/>
<path d="M9.50781 9.26562C10.6797 9.27344 11.7891 9.96875 11.7891 12.0234C11.7969 13.9453 10.8828 15.0781 9.46094 15.0781C8.32031 15.0781 7.54688 14.3672 7.42969 13.4062H8.58594C8.67969 13.8203 9.00781 14.0703 9.46094 14.0703C10.2344 14.0703 10.6406 13.3828 10.6406 12.25H10.5938C10.3281 12.75 9.77344 13.0469 9.14062 13.0469C8.125 13.0469 7.375 12.2812 7.36719 11.2266C7.36719 10.0859 8.22656 9.25781 9.50781 9.26562ZM9.51562 10.1875C8.9375 10.1875 8.50781 10.6328 8.51562 11.1953C8.51562 11.75 8.92969 12.1875 9.50781 12.1875C10.0781 12.1875 10.5234 11.7344 10.5234 11.1875C10.5156 10.6484 10.0938 10.1875 9.51562 10.1875ZM14.3812 15.0781C12.9672 15.0781 12.1078 14.0234 12.1078 12.1719C12.1078 10.3203 12.9672 9.26562 14.3812 9.26562C15.7953 9.26562 16.6547 10.3281 16.6547 12.1719C16.6547 14.0312 15.7953 15.0781 14.3812 15.0781ZM14.3812 14.1094C15.0375 14.1094 15.4594 13.4766 15.4516 12.1719C15.4516 10.8828 15.0375 10.2266 14.3812 10.2266C13.725 10.2266 13.3109 10.8828 13.3109 12.1719C13.3031 13.4766 13.725 14.1094 14.3812 14.1094Z" fill="#333333"/>
</svg>
