<svg width="70" height="70" viewBox="0 0 70 70" fill="none" xmlns="http://www.w3.org/2000/svg">
<path d="M25.5 13H18C15.7909 13 14 14.7909 14 17V57C14 59.2091 15.7909 61 18 61H52C54.2091 61 56 59.2091 56 57V34M44.5 13H52C54.2091 13 56 14.7909 56 17V25" stroke="#333333" stroke-width="3"/>
<rect x="24" y="10" width="22" height="10" rx="2" stroke="#1674B7" stroke-width="3"/>
<path d="M43.1813 47.4156C43.0864 47.5105 42.9573 47.5633 42.8231 47.562L37.2186 47.5097C36.9461 47.5071 36.7259 47.2868 36.7233 47.0144L36.6709 41.4099C36.6697 41.2757 36.7225 41.1466 36.8174 41.0516L55.3943 22.4747C55.5895 22.2795 55.9061 22.2795 56.1014 22.4747L61.7582 28.1316C61.9535 28.3269 61.9535 28.6434 61.7582 28.8387L43.1813 47.4156Z" stroke="#333333" stroke-width="3"/>
</svg>
